# xmcd
#
# Track frame offsets:
#	150
#	14535
#	32291
#	46961
#	59729
#	74857
#	87924
#	104330
#	122452
#	145518
#	161747
#	178682
#	194934
#
# Disc length: 2933 seconds
#
# Revision: 0
# Processed by: cddbd v1.5.2PL0 Copyright (c) Steve Scherf et al.
# Submitted via: audiograbber 1.83.01
#
DISCID=bd0b730d
DTITLE=Golden Earring - Complete Studio Recordings [CD 22) - Love Sweat [remast
DTITLE=ered 2017]
DYEAR=1995
DGENRE=Rock
TTITLE0=When I Was Young
TTITLE1=Darkness, Darkness
TTITLE2=Gotta See Jane
TTITLE3=My Little Red Book
TTITLE4=Sail On Sailor
TTITLE5=Motorbikin'
TTITLE6=I'll Be Back Again
TTITLE7=This Wheel's On Fire
TTITLE8=Ballad Of A Thin Man
TTITLE9=Collage
TTITLE10=Move Over
TTITLE11=Who Do You Love
TTITLE12=Turn The Page
EXTD=
EXTT0=
EXTT1=
EXTT2=
EXTT3=
EXTT4=
EXTT5=
EXTT6=
EXTT7=
EXTT8=
EXTT9=
EXTT10=
EXTT11=
EXTT12=
PLAYORDER=
